<svg xmlns="http://www.w3.org/2000/svg" viewBox="0.0 0.0 128.0 128.0" role="img" aria-label="Instant-Voxel"><title>Instant-Voxel</title><path d="M64,12 A52,52 0 0 0 64,116 Z" fill="#A5C89E"/><rect x="65.5" y="13" width="11" height="11" fill="#476643"/><rect x="65.5" y="26" width="11" height="11" fill="#476643"/><rect x="65.5" y="39" width="11" height="11" fill="#476643"/><rect x="65.5" y="52" width="11" height="11" fill="#476643"/><rect x="65.5" y="65" width="11" height="11" fill="#476643"/><rect x="65.5" y="78" width="11" height="11" fill="#476643"/><rect x="65.5" y="91" width="11" height="11" fill="#476643"/><rect x="65.5" y="104" width="11" height="11" fill="#476643"/><rect x="78.5" y="13" width="11" height="11" fill="#476643"/><rect x="78.5" y="26" width="11" height="11" fill="#476643"/><rect x="78.5" y="39" width="11" height="11" fill="#476643"/><rect x="78.5" y="52" width="11" height="11" fill="#476643"/><rect x="78.5" y="65" width="11" height="11" fill="#476643"/><rect x="78.5" y="78" width="11" height="11" fill="#476643"/><rect x="78.5" y="91" width="11" height="11" fill="#476643"/><rect x="78.5" y="104" width="11" height="11" fill="#476643"/><rect x="91.5" y="26" width="11" height="11" fill="#476643"/><rect x="91.5" y="39" width="11" height="11" fill="#476643"/><rect x="91.5" y="52" width="11" height="11" fill="#476643"/><rect x="91.5" y="65" width="11" height="11" fill="#476643"/><rect x="91.5" y="78" width="11" height="11" fill="#476643"/><rect x="91.5" y="91" width="11" height="11" fill="#476643"/><rect x="104.5" y="39" width="11" height="11" fill="#476643"/><rect x="104.5" y="52" width="11" height="11" fill="#476643"/><rect x="104.5" y="65" width="11" height="11" fill="#476643"/><rect x="104.5" y="78" width="11" height="11" fill="#476643"/></svg>
